<?xml version="1.0" standalone="no"?>
<!DOCTYPE svg PUBLIC "-//W3C//DTD SVG 1.1//EN" "http://www.w3.org/Graphics/SVG/1.1/DTD/svg11.dtd" >
<svg xmlns="http://www.w3.org/2000/svg">
<metadata>
Created by FontPrep 20130207 at Thu May 22 15:35:54 2014
 By Niek Weevers
Copyright (c) 1988, 1990, 1994, 2002 Adobe Systems Incorporated.  All Rights Reserved. (c) 1981, 2002 Heidelberger Druckmaschinen AG. All rights reserved.
</metadata>
<defs>
<font id="ac79850832f70f68e612ede79991fba5" horiz-adv-x='1024' >
  <font-face 
    font-family="FrutigerLTStd-Bold"
    font-weight="700"
    font-stretch="normal"
    units-per-em="2048"
    panose-1="2 11 7 3 3 5 4 2 2 4"
    ascent="1536"
    descent="-512"
    x-height="1055"
    cap-height="1430"
    bbox="-340 -512 2048 1915"
    underline-thickness="102"
    underline-position="-102"
    unicode-range="U+0020-FB02"
  />
<missing-glyph horiz-adv-x="1024" 
d="M102 1239v-1044l349 522zM164 102h696l-348 523zM573 717l349 -522v1044zM512 809l348 522h-696zM0 0v1434h1024v-1434h-1024z" />
    <glyph glyph-name="fi" unicode="fi" horiz-adv-x="1366" 
d="M242 0v854h-203v201h203v147q0 162 88 260t248 99q102 0 200 -23l-22 -227q-63 37 -119 37q-121 0 -121 -162v-131h240v-201h-240v-854h-274zM944 1247v262h275v-262h-275zM944 0v1055h275v-1055h-275z" />
    <glyph glyph-name="fl" unicode="fl" horiz-adv-x="1366" 
d="M242 0v854h-203v201h203v147q0 162 88 260t248 99q102 0 200 -23l-22 -227q-63 37 -119 37q-121 0 -121 -162v-131h240v-201h-240v-854h-274zM944 0v1536h275v-1536h-275z" />
    <glyph glyph-name=".notdef" horiz-adv-x="1024" 
d="M102 1239v-1044l349 522zM164 102h696l-348 523zM573 717l349 -522v1044zM512 809l348 522h-696zM0 0v1434h1024v-1434h-1024z" />
    <glyph glyph-name=".null" horiz-adv-x="0" 
 />
    <glyph glyph-name="nonmarkingreturn" horiz-adv-x="681" 
 />
    <glyph glyph-name="space" unicode=" " horiz-adv-x="569" 
 />
    <glyph glyph-name="exclam" unicode="!" horiz-adv-x="796" 
d="M256 0v287h287v-287h-287zM281 420l-39 1010h315l-43 -1010h-233z" />
    <glyph glyph-name="quotedbl" unicode="&#x22;" horiz-adv-x="985" 
d="M180 918v512h250v-512h-250zM555 918v512h250v-512h-250z" />
    <glyph glyph-name="numbersign" unicode="#" 
d="M700 846h-208l-35 -262h209zM1012 584v-164h-189l-59 -420h-180l59 420h-209l-61 -420h-180l59 420h-184v164h206l35 262h-180v164h205l57 420h182l-57 -420h209l57 420h181l-58 -420h166v-164h-190l-35 -262h166z" />
    <glyph glyph-name="dollar" unicode="$" 
d="M530 1602h97v-148q182 0 334 -51l-27 -236q-141 61 -291 62q-10 0 -16 -2v-379q184 -74 247 -115q170 -115 170 -315t-114 -306q-115 -105 -303 -128v-168h-97v161q-8 -2 -52 -2q-113 0 -337 56l27 258q162 -88 324 -88q25 0 38 4v383q-190 74 -258 123
q-154 111 -154 307t116 303q116 106 296 129v152zM746 382q0 102 -119 161v-314q119 51 119 153zM530 889v319q-113 -51 -112 -178q-1 -84 112 -141z" />
    <glyph glyph-name="percent" unicode="%" horiz-adv-x="2048" 
d="M502 -45l884 1520h168l-884 -1520h-168zM561 864q127 0 127 213t-127 213q-75 0 -103 -64t-28 -149t28 -149t103 -64zM561 700q-164 0 -254 100t-90 277t90 277t254 100t252 -99t88 -277t-88 -278t-252 -100zM1493 -25q-164 -1 -254 99t-90 278t90 278t254 99
q164 0 252 -99q88 -100 88 -278t-88 -278t-252 -99zM1493 139q127 0 127 213t-127 213q-75 -1 -103 -65t-28 -148t28 -148t103 -65z" />
    <glyph glyph-name="ampersand" unicode="&#x26;" horiz-adv-x="1478" 
d="M642 -25q-230 0 -375 111q-144 111 -144 305q0 135 68 230q69 94 233 163q-76 72 -106 104t-62 98t-31 142q0 152 133 239t301 87t290 -81t122 -229q1 -148 -69 -230t-207 -162l262 -287q82 94 90 311h250q-12 -287 -183 -489l256 -287h-352l-96 127q-150 -152 -380 -152
zM821 1113q0 65 -46 103q-47 38 -113 37q-66 0 -114 -39q-48 -40 -48 -110t84 -154l51 -51q68 35 127 92t59 122zM397 399q0 -92 70 -151t172 -60q162 0 250 86l-318 355q-174 -90 -174 -230z" />
    <glyph glyph-name="quotesingle" unicode="'" horiz-adv-x="569" 
d="M160 918v512h250v-512h-250z" />
    <glyph glyph-name="parenleft" unicode="(" horiz-adv-x="681" 
d="M80 631q0 268 81 479t247 438h260q-150 -238 -224 -446t-73 -471q0 -449 297 -918h-260q-328 446 -328 918z" />
    <glyph glyph-name="parenright" unicode=")" horiz-adv-x="681" 
d="M311 631q0 262 -73 470q-74 208 -224 447h258q166 -231 248 -441t82 -476q0 -465 -330 -918h-258q297 475 297 918z" />
    <glyph glyph-name="asterisk" unicode="*" 
d="M991 1036l-284 -63l196 -219l-188 -136l-146 254l-155 -254l-187 136l201 219l-281 63l68 213l272 -116l-32 297h233l-35 -295l273 114z" />
    <glyph glyph-name="plus" unicode="+" horiz-adv-x="1228" 
d="M508 625v411h213v-411h414v-213h-414v-412h-213v412h-414v213h414z" />
    <glyph glyph-name="comma" unicode="," horiz-adv-x="569" 
d="M47 -225l131 512h297l-186 -512h-242z" />
    <glyph glyph-name="hyphen" unicode="-" horiz-adv-x="681" 
d="M610 438h-538v226h538v-226z" />
    <glyph glyph-name="period" unicode="." horiz-adv-x="569" 
d="M141 0v287h287v-287h-287z" />
    <glyph glyph-name="slash" unicode="/" horiz-adv-x="796" 
d="M43 -25l500 1479h213l-500 -1479h-213z" />
    <glyph glyph-name="zero" unicode="0" 
d="M567 -25q-496 0 -495 736q0 297 101 503q55 111 155 176q100 64 230 64q244 -1 366 -165q53 -73 98 -208t45 -322q1 -187 -21 -305t-73 -233t-155 -181t-251 -65zM568 188q126 0 173 150q39 124 39 286v87q0 293 -45 400q-20 50 -63 90q-42 40 -98 40q-110 0 -153 -98
q-48 -106 -55 -218q-8 -112 -8 -192v-109q0 -118 12 -176t26 -110q15 -51 37 -80q53 -70 135 -70z" />
    <glyph glyph-name="one" unicode="1" 
d="M834 1430v-1430h-287v1104l-242 -197l-143 187l418 336h254z" />
    <glyph glyph-name="two" unicode="2" 
d="M1034 0h-950v240q6 6 110 102q359 330 461 528q47 92 47 175t-68 134q-69 50 -165 50q-154 0 -330 -115l-22 238q201 102 417 102t336 -106t119 -310q0 -204 -170 -417q-92 -115 -145 -171t-131 -134t-92 -91h583v-225z" />
    <glyph glyph-name="three" unicode="3" 
d="M727 403q0 223 -315 224h-140v225h131q147 0 233 48q85 48 85 140q0 188 -246 189q-166 0 -321 -76l-17 229q182 72 372 72t328 -68q77 -38 124 -114t47 -185q0 -242 -267 -342v-4q133 -18 203 -111t70 -210t-35 -194t-89 -123q-147 -125 -444 -126q-190 -1 -354 46
l17 243q315 -125 522 -13q96 52 96 150z" />
    <glyph glyph-name="four" unicode="4" 
d="M33 297v231l534 902h357v-920h182v-213h-182v-297h-275v297h-616zM649 510v620h-4l-354 -620h358z" />
    <glyph glyph-name="five" unicode="5" 
d="M1004 1430v-213h-551l-7 -306q253 47 436 -77q72 -50 114 -146t42 -227q0 -211 -145 -348t-412 -138q-162 0 -334 41l7 256q326 -135 509 -9q89 63 89 191t-94 187t-231 59q-136 0 -259 -38l14 768h822z" />
    <glyph glyph-name="six" unicode="6" 
d="M568 713q-97 0 -144 -77t-47 -191q0 -113 49 -185t146 -72t145 75q47 75 47 185t-49 188q-50 77 -147 77zM1051 470q0 -220 -120 -358q-120 -136 -356 -137q-485 0 -485 666q0 421 181 639q145 174 418 174q145 0 290 -51l-37 -232q-133 57 -250 57q-118 0 -196 -68
q-78 -69 -109 -163t-35 -211l4 -4q98 144 287 144t299 -118t109 -338z" />
    <glyph glyph-name="seven" unicode="7" 
d="M102 1204v226h922v-238l-508 -1192h-311l530 1204h-633z" />
    <glyph glyph-name="eight" unicode="8" 
d="M358 391q0 -88 65 -145q65 -58 153 -58t146 52t58 139q0 170 -239 248q-183 -89 -183 -236zM756 1069q0 72 -48 122t-130 50t-144 -45t-63 -131q0 -86 71 -133t154 -78q61 23 111 83q49 60 49 132zM551 1454q205 0 342 -87t137 -257q0 -102 -62 -200t-175 -142v-2
q274 -129 274 -375q0 -207 -134 -311q-133 -104 -357 -104t-364 102t-140 319t262 344v4q-111 49 -174 135t-64 197q0 185 125 281t330 96z" />
    <glyph glyph-name="nine" unicode="9" 
d="M377 980q0 -110 49 -186t146 -77q97 0 145 77q47 76 47 190t-49 186t-147 71q-98 0 -144 -75q-47 -76 -47 -186zM449 201q117 1 195 69t110 162q31 94 34 211l-4 4q-96 -143 -286 -143t-298 118q-110 118 -110 338t120 357t355 137q485 0 486 -666q0 -259 -75 -452
q-42 -108 -107 -186t-169 -126t-248 -48t-290 51l37 231q133 -57 250 -57z" />
    <glyph glyph-name="colon" unicode=":" horiz-adv-x="569" 
d="M141 0v287h287v-287h-287zM141 768v287h287v-287h-287z" />
    <glyph glyph-name="semicolon" unicode=";" horiz-adv-x="569" 
d="M141 768v287h287v-287h-287zM47 -225l131 512h297l-186 -512h-242z" />
    <glyph glyph-name="less" unicode="&#x3c;" horiz-adv-x="1228" 
d="M1135 193v-209l-1041 446v176l1041 447v-209l-764 -326z" />
    <glyph glyph-name="equal" unicode="=" horiz-adv-x="1228" 
d="M1135 401v-213h-1041v213h1041zM1135 848v-213h-1041v213h1041z" />
    <glyph glyph-name="greater" unicode="&#x3e;" horiz-adv-x="1228" 
d="M94 193l764 325l-764 326v209l1041 -447v-176l-1041 -446v209z" />
    <glyph glyph-name="question" unicode="?" horiz-adv-x="1024" 
d="M358 0v287h287v-287h-287zM481 1454q152 0 253 -36t171 -121t70 -219t-130 -274q-55 -58 -107 -116q-124 -136 -111 -270h-252q0 215 149 385q12 12 37 40t37 40q47 47 63 97q15 49 15 75q0 94 -69 140t-187 46t-295 -82l-23 227q227 68 379 68z" />
    <glyph glyph-name="at" unicode="@" horiz-adv-x="1638" 
d="M868 1454q265 0 470 -142q100 -71 162 -190t62 -268t-60 -266t-148 -179q-182 -128 -307 -126q-45 -1 -77 27t-34 79h-4q-94 -106 -216 -106t-215 96t-93 242q0 203 123 348q124 145 286 145t250 -131l25 98h172l-113 -497q-14 -53 -14 -70q0 -31 30 -31q88 -1 160 93
t72 270q0 119 -47 205q-116 212 -505 214q-229 1 -393 -163t-165 -394q1 -230 151 -388q150 -156 379 -156q319 0 473 129h174q-215 -317 -647 -318q-282 0 -505 184q-108 89 -173 233q-66 144 -65 323q0 309 226 524t566 215zM850 913q-96 0 -163 -82t-67 -168t42 -133
t124 -47t149 83q67 82 67 170t-42 132t-110 45z" />
    <glyph glyph-name="A" unicode="A" horiz-adv-x="1478" 
d="M18 0l557 1430h324l561 -1430h-317l-123 328h-580l-125 -328h-297zM940 553l-207 590h-4l-207 -590h418z" />
    <glyph glyph-name="B" unicode="B" horiz-adv-x="1251" 
d="M166 0v1430h500q333 0 430 -209q31 -68 30 -158q0 -125 -78 -211t-206 -109v-4q145 -14 236 -104t91 -219t-51 -217t-135 -128q-149 -71 -317 -71h-500zM453 1204v-352h116q270 0 271 174q0 129 -124 164q-56 14 -153 14h-110zM453 639v-414h135q295 0 295 199
q0 136 -91 176q-91 39 -204 39h-135z" />
    <glyph glyph-name="C" unicode="C" horiz-adv-x="1251" 
d="M881 -25q-361 -1 -573 181t-212 540t209 558t576 200q172 0 323 -59l-20 -242q-133 76 -310 76q-217 -1 -348 -147t-131 -370t131 -368t342 -143q211 0 326 59l12 -240q-190 -45 -325 -45z" />
    <glyph glyph-name="D" unicode="D" horiz-adv-x="1478" 
d="M453 1204v-979h159q190 0 331 133q140 132 140 356t-140 357t-331 133h-159zM166 0v1430h391q825 0 825 -715t-825 -715h-391z" />
    <glyph glyph-name="E" unicode="E" 
d="M166 0v1430h844v-226h-557v-352h510v-225h-510v-402h561v-225h-848z" />
    <glyph glyph-name="F" unicode="F" horiz-adv-x="1024" 
d="M166 0v1430h795v-226h-508v-352h483v-225h-483v-627h-287z" />
    <glyph glyph-name="G" unicode="G" horiz-adv-x="1478" 
d="M913 1229q-244 1 -381 -145t-137 -371t131 -369t355 -143q106 0 188 20v373h-303v225h577v-770q-272 -74 -462 -74q-361 -1 -573 181t-212 540t209 558t576 200q220 0 419 -59l-18 -242q-164 76 -369 76z" />
    <glyph glyph-name="H" unicode="H" horiz-adv-x="1478" 
d="M166 0v1430h287v-578h573v578h287v-1430h-287v627h-573v-627h-287z" />
    <glyph glyph-name="I" unicode="I" horiz-adv-x="569" 
d="M141 0v1430h287v-1430h-287z" />
    <glyph glyph-name="J" unicode="J" horiz-adv-x="796" 
d="M180 225q134 0 165 90q24 72 24 162v953h286v-1090q0 -137 -96 -251t-295 -114q-115 0 -219 27v248q67 -25 135 -25z" />
    <glyph glyph-name="K" unicode="K" horiz-adv-x="1366" 
d="M166 0v1430h287v-615l516 615h352l-588 -674l613 -756h-375l-514 664h-4v-664h-287z" />
    <glyph glyph-name="L" unicode="L" horiz-adv-x="1024" 
d="M166 0v1430h287v-1205h555v-225h-842z" />
    <glyph glyph-name="M" unicode="M" horiz-adv-x="1933" 
d="M166 0v1430h459l340 -1084h4l340 1084h458v-1430h-274v1180h-4l-385 -1180h-275l-385 1180l-4 -4v-1176h-274z" />
    <glyph glyph-name="N" unicode="N" horiz-adv-x="1478" 
d="M152 0v1430h352l545 -1070h4v1070h274v-1430h-350l-547 1069h-4v-1069h-274z" />
    <glyph glyph-name="O" unicode="O" horiz-adv-x="1593" 
d="M395 719q0 -300 169 -440q92 -78 232 -78t233 78q169 142 169 440q0 211 -101 361t-300 149q-199 1 -301 -149t-101 -361zM795 -25q-335 0 -517 203t-182 540q0 336 184 536t515 200q332 0 517 -202t185 -534t-184 -538q-184 -205 -518 -205z" />
    <glyph glyph-name="P" unicode="P" 
d="M141 0v1430h363q596 0 596 -433q0 -235 -151 -345t-400 -109h-121v-543h-287zM428 1204v-436h100q272 0 273 213q0 117 -76 170t-197 53h-100z" />
    <glyph glyph-name="Q" unicode="Q" horiz-adv-x="1593" 
d="M395 719q0 -300 169 -440q92 -78 232 -78t233 78q169 142 169 440q0 211 -101 361t-300 149q-199 1 -301 -149t-101 -361zM795 1454q332 0 517 -202t185 -533q0 -233 -93 -409t-267 -259l323 -321h-346l-250 250q-20 -4 -67 -5q-336 0 -518 203q-183 203 -183 540
q0 336 184 536t515 200z" />
    <glyph glyph-name="R" unicode="R" horiz-adv-x="1251" 
d="M141 0v1430h287q299 0 362 -16q64 -16 120 -32q56 -18 89 -47q90 -79 107 -150q18 -71 18 -143q0 -129 -80 -221t-215 -110v-4q88 -6 152 -148l229 -559h-319l-172 446q-33 84 -73 116t-126 32h-92v-594h-287zM428 1204v-385h94q220 0 278 93q26 42 26 104
q-1 124 -101 161q-78 27 -203 27h-94z" />
    <glyph glyph-name="S" unicode="S" 
d="M492 201q94 0 174 48t80 129t-65 130t-157 83t-184 77t-157 131t-64 219q0 224 144 330t344 106t354 -51l-27 -236q-141 61 -291 62q-90 0 -158 -46t-67 -153q0 -68 64 -112t157 -78q92 -33 184 -76t157 -133t64 -223q0 -221 -150 -327q-151 -105 -386 -106
q-134 -1 -201 15q-66 16 -166 41l27 258q162 -88 324 -88z" />
    <glyph glyph-name="T" unicode="T" 
d="M426 0v1204h-410v226h1106v-226h-409v-1204h-287z" />
    <glyph glyph-name="U" unicode="U" horiz-adv-x="1478" 
d="M156 516v914h286v-826q0 -403 297 -403t297 403v826h287v-914q1 -541 -583 -541t-584 541z" />
    <glyph glyph-name="V" unicode="V" horiz-adv-x="1366" 
d="M512 0l-492 1430h308l366 -1123h4l363 1123h285l-482 -1430h-352z" />
    <glyph glyph-name="W" unicode="W" horiz-adv-x="2048" 
d="M399 0l-379 1430h302l266 -1143h4l244 1143h389l252 -1143h4l268 1143h279l-373 -1430h-369l-258 1143h-4l-254 -1143h-371z" />
    <glyph glyph-name="X" unicode="X" horiz-adv-x="1366" 
d="M20 0l469 743l-426 687h332l299 -510l305 510h308l-430 -687l469 -743h-338l-330 557l-334 -557h-324z" />
    <glyph glyph-name="Y" unicode="Y" horiz-adv-x="1366" 
d="M545 0v565l-522 865h335l338 -601l344 601h303l-512 -865v-565h-286z" />
    <glyph glyph-name="Z" unicode="Z" 
d="M74 0v233l671 971h-645v226h951v-234l-678 -971h692v-225h-991z" />
    <glyph glyph-name="bracketleft" unicode="[" horiz-adv-x="681" 
d="M147 -287v1835h459v-200h-196v-1434h196v-201h-459z" />
    <glyph glyph-name="backslash" unicode="\" horiz-adv-x="796" 
d="M541 -25l-500 1479h213l500 -1479h-213z" />
    <glyph glyph-name="bracketright" unicode="]" horiz-adv-x="681" 
d="M76 1548h459v-1835h-459v201h196v1434h-196v200z" />
    <glyph glyph-name="asciicircum" unicode="^" horiz-adv-x="1228" 
d="M348 641h-213l383 789h193l383 -789h-213l-267 573z" />
    <glyph glyph-name="underscore" unicode="_" horiz-adv-x="1024" 
d="M0 -154h1024v-102h-1024v102z" />
    <glyph glyph-name="grave" unicode="`" horiz-adv-x="569" 
d="M340 1497l170 -299h-170l-281 299h281z" />
    <glyph glyph-name="a" unicode="a" 
d="M336 305q0 -65 48 -97t126 -32q121 0 185 85t65 226h-119q-305 0 -305 -182zM1010 500q0 -297 16 -500h-242q-4 20 -12 158h-4q-47 -84 -137 -133t-189 -50q-150 0 -260 85t-108 229q0 213 180 301q125 61 354 61h152q0 125 -56 176t-182 52q-173 0 -325 -115l-9 235
q172 80 390 80t324 -105q108 -105 108 -339v-135z" />
    <glyph glyph-name="b" unicode="b" horiz-adv-x="1251" 
d="M141 0v1536h275v-616h4q121 160 315 159q227 -1 335 -155t108 -394q0 -154 -41 -274t-145 -200q-104 -81 -257 -81q-215 0 -323 154h-4v-129h-267zM418 528q0 -131 58 -235t183 -105q83 0 139 58t74 130q39 159 0 305q-18 71 -71 128t-137 57q-121 0 -184 -103
q-62 -104 -62 -235z" />
    <glyph glyph-name="c" unicode="c" horiz-adv-x="909" 
d="M626 866q-114 0 -190 -92t-76 -244t73 -246t212 -96q98 0 211 50l12 -228q-113 -35 -274 -35q-252 0 -386 154q-134 153 -134 397t135 399t375 154q149 0 266 -35l-25 -217q-85 39 -199 39z" />
    <glyph glyph-name="d" unicode="d" horiz-adv-x="1251" 
d="M844 0v119h-4q-115 -143 -324 -144q-154 0 -257 81t-144 201t-41 273q0 240 107 395q108 155 335 154q195 0 315 -147h5v604h274v-1536h-266zM588 866q-84 0 -137 -57q-91 -98 -91 -283t93 -280q55 -57 139 -58q125 0 183 104q59 104 59 236q0 130 -62 234t-184 104z" />
    <glyph glyph-name="e" unicode="e" 
d="M625 -25q-263 -1 -407 143t-144 395t127 409t362 157q284 0 393 -175t109 -462h-729q8 -126 90 -196t226 -70t335 107v-224q-152 -84 -362 -84zM578 879q-110 1 -170 -67q-62 -68 -72 -181h467q-7 111 -61 179t-164 69z" />
    <glyph glyph-name="f" unicode="f" horiz-adv-x="796" 
d="M242 0v854h-203v201h203v147q0 162 88 260t248 99q102 0 200 -23l-22 -227q-63 37 -119 37q-121 0 -121 -162v-131h240v-201h-240v-854h-274z" />
    <glyph glyph-name="g" unicode="g" horiz-adv-x="1251" 
d="M848 1055h262v-953q0 -557 -557 -557q-195 0 -365 72l23 233q68 -36 157 -64q90 -28 164 -28t136 27t93 63q32 36 50 98t22 108q3 46 3 114h-5q-41 -72 -129 -120t-198 -48q-219 0 -325 151q-105 151 -105 381q0 302 192 461q104 86 254 86q219 0 324 -168h4v144z
M600 213q117 0 176 91q60 90 60 234t-58 236t-179 92q-122 0 -180 -97q-59 -97 -59 -227t62 -230q62 -99 178 -99z" />
    <glyph glyph-name="h" unicode="h" horiz-adv-x="1251" 
d="M141 0v1536h275v-625h4q115 168 332 168q180 -1 269 -113t89 -300v-666h-274v563q0 172 -41 238q-41 65 -125 65q-153 0 -209 -126q-45 -101 -45 -224v-516h-275z" />
    <glyph glyph-name="i" unicode="i" horiz-adv-x="569" 
d="M147 1247v262h275v-262h-275zM147 0v1055h275v-1055h-275z" />
    <glyph glyph-name="j" unicode="j" horiz-adv-x="569" 
d="M147 1247v262h275v-262h-275zM147 1055h275v-1133q0 -188 -83 -283q-83 -94 -235 -94q-80 1 -135 17l11 196q112 6 140 42t27 159v1096z" />
    <glyph glyph-name="k" unicode="k" 
d="M147 0v1536h275v-903h4l328 422h323l-393 -471l442 -584h-348l-352 512h-4v-512h-275z" />
    <glyph glyph-name="l" unicode="l" horiz-adv-x="569" 
d="M147 0v1536h275v-1536h-275z" />
    <glyph glyph-name="m" unicode="m" horiz-adv-x="1820" 
d="M137 0v1055h256v-148h4q115 172 314 172q227 0 311 -186q45 90 136 138t194 48q182 1 258 -109t76 -304v-666h-275v629q0 142 -37 189q-37 48 -121 48q-205 0 -204 -354v-512h-275v629q0 142 -37 189q-37 48 -121 48q-205 0 -204 -354v-512h-275z" />
    <glyph glyph-name="n" unicode="n" horiz-adv-x="1251" 
d="M141 0v1055h260v-144h5q119 168 346 168q180 -1 269 -113t89 -300v-666h-274v563q0 172 -41 238q-41 65 -125 65q-153 0 -209 -126q-45 -101 -45 -224v-516h-275z" />
    <glyph glyph-name="o" unicode="o" horiz-adv-x="1251" 
d="M360 540q0 -142 60 -246q60 -106 208 -106q147 0 210 118q53 99 53 238q0 140 -70 231q-71 91 -197 91t-195 -92t-69 -234zM1178 530q0 -246 -148 -400t-404 -155q-256 1 -404 155t-148 400t155 398q156 152 396 152q241 0 397 -152t156 -398z" />
    <glyph glyph-name="p" unicode="p" horiz-adv-x="1251" 
d="M664 866q-122 0 -184 -103t-62 -235t58 -235q58 -104 183 -105q83 0 139 58t74 130q39 159 0 305q-18 71 -71 128t-137 57zM141 -430v1485h262v-150h5q104 174 329 174q225 -1 333 -155t108 -386t-101 -393q-51 -80 -140 -125t-195 -45t-181 32q-74 32 -141 114h-4v-551
h-275z" />
    <glyph glyph-name="q" unicode="q" horiz-adv-x="1251" 
d="M588 866q-84 0 -137 -57q-89 -95 -90 -282q-1 -186 92 -281q55 -57 139 -58q125 0 183 104q59 104 59 236q0 130 -62 234t-184 104zM836 -430v551h-5q-67 -82 -141 -114t-180 -32t-196 45q-159 80 -216 302q-25 96 -24 208q0 240 108 395q109 155 333 155t329 -175h4v150
h262v-1485h-274z" />
    <glyph glyph-name="r" unicode="r" horiz-adv-x="796" 
d="M147 0v1055h244v-240h4q10 86 93 175t196 89q55 0 84 -8v-276q-40 23 -108 23q-127 -1 -172 -79q-46 -78 -56 -164t-10 -188v-387h-275z" />
    <glyph glyph-name="s" unicode="s" horiz-adv-x="909" 
d="M546 879q-185 0 -186 -117q0 -45 50 -73t118 -47q70 -19 141 -49q71 -31 119 -99t50 -175q0 -172 -128 -258t-292 -86t-334 45l16 226q139 -70 271 -70q68 0 124 30t56 88q0 102 -121 132t-232 86q-52 27 -88 88t-36 152q0 162 120 244t293 83q117 0 299 -39l-18 -206
q-132 45 -222 45z" />
    <glyph glyph-name="t" unicode="t" horiz-adv-x="796" 
d="M231 317v537h-202v201h202v211l275 88v-299h244v-201h-244v-492q0 -174 129 -174q80 0 125 29l8 -217q-86 -25 -203 -25q-160 0 -247 91t-87 251z" />
    <glyph glyph-name="u" unicode="u" horiz-adv-x="1251" 
d="M1110 1055v-1055h-260v143h-4q-138 -168 -332 -168t-284 113q-89 113 -89 301v666h275v-563q0 -176 41 -239t124 -64q206 -2 244 237q10 55 11 113v516h274z" />
    <glyph glyph-name="v" unicode="v" 
d="M416 0l-391 1055h294l263 -768h4l254 768h274l-389 -1055h-309z" />
    <glyph glyph-name="w" unicode="w" horiz-adv-x="1820" 
d="M379 0l-356 1055h290l234 -781h4l213 781h319l230 -781h4l219 781h262l-323 -1055h-324l-229 805h-4l-226 -805h-313z" />
    <glyph glyph-name="x" unicode="x" 
d="M381 553l-326 502h324l207 -344l202 344h291l-315 -502l356 -553h-327l-236 393l-238 -393h-301z" />
    <glyph glyph-name="y" unicode="y" 
d="M326 1055l254 -770h4l254 770h278l-395 -1047q-6 -16 -26 -68t-50 -133q-30 -80 -71 -124q-40 -45 -80 -77q-74 -59 -191 -60q-116 -1 -215 28l18 203q52 -19 138 -19t134 52t48 137l-403 1108h303z" />
    <glyph glyph-name="z" unicode="z" horiz-adv-x="1024" 
d="M96 842v213h836v-226l-524 -616h542v-213h-876v223l534 619h-512z" />
    <glyph glyph-name="braceleft" unicode="{" horiz-adv-x="681" 
d="M37 543v176q68 0 118 45t50 145v363q0 133 90 205t213 71h154v-164h-93q-63 0 -83 -35q-19 -36 -19 -114v-354q0 -179 -156 -232q-35 -12 -73 -16v-4q229 -20 229 -262v-340q0 -80 19 -115t83 -35h93v-164h-154q-125 0 -214 72t-89 205v348q0 109 -50 157t-118 48z" />
    <glyph glyph-name="bar" unicode="|" horiz-adv-x="454" 
d="M121 1536h213v-2048h-213v2048z" />
    <glyph glyph-name="braceright" unicode="}" horiz-adv-x="681" 
d="M645 719v-176q-68 0 -118 -48t-50 -157v-348q0 -135 -88 -206t-215 -71h-154v164h93q63 0 83 35q19 35 19 115v340q0 242 229 262v4q-79 8 -131 44q-98 67 -98 204v354q0 78 -19 114t-83 35h-93v164h154q127 0 215 -70t88 -206v-363q0 -100 50 -145t118 -45z" />
    <glyph glyph-name="asciitilde" unicode="~" horiz-adv-x="1228" 
d="M389 696q117 0 311 -104q73 -39 125 -39q79 0 139 75q19 26 50 72l73 -180q-106 -180 -235 -180q-98 0 -236 72t-225 71q-108 0 -176 -147l-74 180q94 180 248 180z" />
    <glyph glyph-name="uni00A0" unicode="&#xa0;" horiz-adv-x="569" 
 />
    <glyph glyph-name="exclamdown" unicode="&#xa1;" horiz-adv-x="796" 
d="M252 768v287h287v-287h-287zM240 -375l43 1010h227l45 -1010h-315z" />
    <glyph glyph-name="cent" unicode="&#xa2;" 
d="M760 188q86 0 198 50l13 -228q-113 -35 -236 -35t-182 17l-55 -176h-119l65 213q-132 67 -200 197t-68 306q0 238 135 393t375 154q57 0 82 -4l53 170h119l-57 -186q25 -2 69 -15l-24 -217q-53 25 -107 33l-198 -645q51 -27 137 -27zM462 528q0 -142 66 -231l174 569
q-112 -14 -176 -105t-64 -233z" />
    <glyph glyph-name="sterling" unicode="&#xa3;" 
d="M111 0v213h180v449h-156v163h156v172q0 203 141 330t350 127q150 0 267 -35l-15 -225q-127 35 -198 35q-127 0 -193 -77t-65 -189v-138h301v-163h-301v-449h456v-213h-923z" />
    <glyph glyph-name="currency" unicode="&#xa4;" 
d="M287 719q0 -121 83 -208q84 -87 200 -87t199 87t83 208t-83 208t-200 87t-199 -87t-83 -208zM1077 722q0 -159 -94 -296l119 -119l-121 -121l-119 119q-135 -94 -293 -94t-293 94l-118 -119l-121 121l119 119q-94 133 -94 292t94 294l-119 118l121 121l118 -118
q131 94 291 94t295 -94l119 118l121 -121l-119 -118q94 -131 94 -290z" />
    <glyph glyph-name="yen" unicode="&#xa5;" 
d="M1008 756v-164h-287l-14 -27v-100h301v-164h-301v-301h-275v301h-301v164h301v100l-16 27h-285v164h205l-356 674h288l310 -631l315 631h268l-354 -674h201z" />
    <glyph glyph-name="brokenbar" unicode="&#xa6;" horiz-adv-x="454" 
d="M121 358h213v-716h-213v716zM121 1382h213v-716h-213v716z" />
    <glyph glyph-name="section" unicode="&#xa7;" 
d="M608 1241q-197 0 -196 -139q-2 -57 58 -97t147 -69t175 -65q88 -35 151 -107t63 -165t-40 -164t-112 -109q139 -82 139 -244t-136 -261q-137 -99 -295 -99t-400 59l18 233q195 -80 344 -80q207 0 207 142q0 57 -61 97q-60 40 -148 70q-88 29 -176 65t-149 107t-62 169
q0 182 158 276q-143 98 -143 244q0 114 68 196q129 154 378 154q111 0 328 -41l-23 -223q-135 51 -293 51zM348 633q0 -59 66 -103t170 -83q104 -38 135 -56q74 63 74 154q0 51 -38 88t-83 55t-125 46t-125 50q-74 -53 -74 -151z" />
    <glyph glyph-name="dieresis" unicode="&#xa8;" horiz-adv-x="569" 
d="M193 1247h-238v238h238v-238zM377 1485h237v-238h-237v238z" />
    <glyph glyph-name="copyright" unicode="&#xa9;" horiz-adv-x="1638" 
d="M80 715q0 305 217 522t522 217t522 -217t217 -522t-216 -522q-218 -217 -523 -217t-522 216q-217 218 -217 523zM1036 850q-29 143 -205 143q-87 0 -144 -73q-56 -74 -56 -194t60 -199q59 -79 147 -79t139 40q51 38 59 108h170q-23 -145 -122 -228t-236 -83
q-186 0 -302 124t-116 313t112 312t302 123q141 0 238 -80t118 -227h-164zM1346 715q0 251 -152 413t-376 162t-375 -162t-151 -414t152 -414q150 -161 374 -161t376 162t152 414z" />
    <glyph glyph-name="ordfeminine" unicode="&#xaa;" horiz-adv-x="739" 
d="M436 1085q-148 1 -184 -45q-18 -24 -19 -61q0 -37 34 -53q35 -16 91 -16t98 49q42 50 42 126h-62zM57 958q0 156 124 200q100 38 239 38h76q0 78 -37 107t-131 29t-197 -64v135q100 51 251 51q150 0 220 -63t70 -215q0 -234 10 -373h-172l-6 86h-4q-43 -102 -193 -103
q-98 0 -174 44t-76 128z" />
    <glyph glyph-name="guillemotleft" unicode="&#xab;" 
d="M100 551l242 420h258l-225 -420l225 -420h-258zM557 551l242 420h258l-226 -420l226 -420h-258z" />
    <glyph glyph-name="logicalnot" unicode="&#xac;" horiz-adv-x="1228" 
d="M922 221v414h-828v213h1041v-627h-213z" />
    <glyph glyph-name="uni00AD" unicode="&#xad;" horiz-adv-x="681" 
d="M610 438h-538v226h538v-226z" />
    <glyph glyph-name="registered" unicode="&#xae;" horiz-adv-x="1638" 
d="M698 791h144q72 -1 106 21t35 87q0 94 -160 94h-125v-202zM522 307v821h309q164 0 246 -56t82 -189q0 -201 -217 -219l217 -357h-180l-197 348h-84v-348h-176zM1346 715q0 251 -152 413t-376 162t-374 -162t-151 -414q1 -253 151 -414t374 -161t376 162t152 414zM80 715
q0 305 217 522t522 217t522 -217t217 -522t-216 -522q-218 -217 -523 -217t-522 216q-217 218 -217 523z" />
    <glyph glyph-name="macron" unicode="&#xaf;" horiz-adv-x="569" 
d="M580 1266h-590v164h590v-164z" />
    <glyph glyph-name="degree" unicode="&#xb0;" horiz-adv-x="819" 
d="M410 1454q137 0 233 -96t96 -234t-95 -234q-95 -95 -236 -95t-235 93q-93 93 -93 233t96 237q97 96 234 96zM410 1305q-80 -1 -130 -51t-50 -130t50 -130t130 -50t130 50t50 130t-50 130t-130 51z" />
    <glyph glyph-name="plusminus" unicode="&#xb1;" horiz-adv-x="1228" 
d="M94 0v213h1041v-213h-1041zM508 766v270h213v-270h414v-213h-414v-272h-213v272h-414v213h414z" />
    <glyph glyph-name="twosuperior" unicode="&#xb2;" horiz-adv-x="739" 
d="M680 578h-619v167q80 29 222 177q156 168 155 249q0 107 -121 107t-219 -70l-14 178q125 68 271 68t234 -64q87 -65 87 -189t-125 -267q-117 -129 -221 -176v-4h350v-176z" />
    <glyph glyph-name="threesuperior" unicode="&#xb3;" horiz-adv-x="739" 
d="M318 1290q-132 0 -224 -53l-10 168q141 49 264 49t224 -51t102 -160q0 -172 -170 -215v-4q86 -6 134 -61t48 -141t-61 -147q-108 -110 -314 -110q-125 0 -258 35l10 170q139 -41 212 -41t123 28t51 77q0 100 -150 100q-74 0 -115 -6v172l119 -2q51 0 98 26t48 72
q1 94 -131 94z" />
    <glyph glyph-name="acute" unicode="&#xb4;" horiz-adv-x="569" 
d="M59 1198l170 299h281l-281 -299h-170z" />
    <glyph glyph-name="mu" unicode="&#xb5;" horiz-adv-x="1251" 
d="M141 -430v1485h275v-563q0 -176 41 -239t124 -64q206 -2 244 237q10 55 11 113v516h274v-1055h-260v143h-4q-27 -63 -90 -115t-138 -53q-135 0 -198 70h-4v-475h-275z" />
    <glyph glyph-name="paragraph" unicode="&#xb6;" horiz-adv-x="1269" 
d="M453 -254v952q-211 0 -330 98t-119 261q0 203 129 288t363 85h600v-1684h-213v1520h-217v-1520h-213z" />
    <glyph glyph-name="periodcentered" unicode="&#xb7;" horiz-adv-x="569" 
d="M285 424q-70 0 -114 44t-44 114t44 114t114 43q69 0 113 -44q44 -43 44 -113t-44 -114t-113 -44z" />
    <glyph glyph-name="cedilla" unicode="&#xb8;" horiz-adv-x="569" 
d="M338 -332q109 0 108 72q0 74 -90 74q-35 0 -86 -19l-30 53l120 152h129l-94 -109l4 -4q74 12 84 13q66 0 115 -37t49 -105q0 -108 -76 -160q-77 -52 -201 -52t-216 42l41 111q96 -31 143 -31z" />
    <glyph glyph-name="onesuperior" unicode="&#xb9;" horiz-adv-x="739" 
d="M502 1442v-864h-213v655l-158 -121l-106 125l284 205h193z" />
    <glyph glyph-name="ordmasculine" unicode="&#xba;" horiz-adv-x="813" 
d="M410 1331q-84 0 -125 -58t-41 -151q0 -213 166 -213q160 0 159 213q1 86 -37 148t-122 61zM410 1454q152 0 256 -92t104 -243t-103 -241t-259 -92q-156 0 -260 92t-105 244q-1 150 107 241t260 91z" />
    <glyph glyph-name="guillemotright" unicode="&#xbb;" 
d="M1038 551l-241 -420h-258l225 420l-225 420h258zM582 551l-242 -420h-258l225 420l-225 420h258z" />
    <glyph glyph-name="onequarter" unicode="&#xbc;" horiz-adv-x="1708" 
d="M518 1442v-864h-213v655l-158 -121l-106 125l285 205h192zM336 -45l854 1520h168l-854 -1520h-168zM932 162v174l368 528h256v-538h99v-164h-99v-162h-213v162h-411zM1343 326v350h-4l-233 -350h237z" />
    <glyph glyph-name="onehalf" unicode="&#xbd;" horiz-adv-x="1708" 
d="M1022 0v168q80 29 221 176q156 168 156 250q0 106 -121 106t-219 -69l-15 178q126 68 272 68t233 -65t87 -189t-125 -267q-117 -129 -221 -176v-4h350v-176h-618zM498 1442v-864h-213v655l-158 -123l-107 125l285 207h193zM274 -45l854 1520h168l-854 -1520h-168z" />
    <glyph glyph-name="threequarters" unicode="&#xbe;" horiz-adv-x="1708" 
d="M436 1196q0 94 -137 94t-229 -53l-11 168q141 49 265 49t224 -51q101 -51 101 -160q0 -172 -170 -215v-4q86 -6 134 -61q49 -55 49 -141t-62 -147q-109 -110 -313 -110q-125 0 -258 35l10 170q139 -41 217 -41t130 28q50 28 50 77q0 100 -162 100q-74 0 -114 -6v172
l119 -2q59 0 108 26t49 72zM360 -45l854 1520h168l-854 -1520h-168zM1581 162v-162h-213v162h-412v174l369 528h256v-538h98v-164h-98zM1368 326v350h-4l-229 -350h233z" />
    <glyph glyph-name="questiondown" unicode="&#xbf;" horiz-adv-x="1024" 
d="M664 1055v-287h-287v287h287zM649 637q0 -217 -149 -383q-125 -125 -145 -196q-7 -28 -7 -58q0 -96 70 -141t166 -45q161 0 315 82l23 -228q-158 -68 -419 -68t-385 156q-69 86 -69 221t130 274q55 57 107 115q124 136 111 271h252z" />
    <glyph glyph-name="Agrave" unicode="&#xc0;" horiz-adv-x="1478" 
d="M737 1821l170 -299h-170l-280 299h280zM18 0l557 1430h324l561 -1430h-317l-123 328h-580l-125 -328h-297zM940 553l-207 590h-4l-207 -590h418z" />
    <glyph glyph-name="Aacute" unicode="&#xc1;" horiz-adv-x="1478" 
d="M571 1522l170 299h281l-281 -299h-170zM18 0l557 1430h324l561 -1430h-317l-123 328h-580l-125 -328h-297zM940 553l-207 590h-4l-207 -590h418z" />
    <glyph glyph-name="Acircumflex" unicode="&#xc2;" horiz-adv-x="1478" 
d="M641 1821h207l215 -299h-182l-140 176l-143 -176h-182zM18 0l557 1430h324l561 -1430h-317l-123 328h-580l-125 -328h-297zM940 553l-207 590h-4l-207 -590h418z" />
    <glyph glyph-name="Atilde" unicode="&#xc3;" horiz-adv-x="1478" 
d="M487 1559h-110q0 96 60 172q60 75 144 75t180 -43q95 -43 140 -43t68 29t22 72h111q0 -106 -53 -177t-139 -71t-183 38q-96 38 -142 38q-46 1 -72 -27t-26 -63zM18 0l557 1430h324l561 -1430h-317l-123 328h-580l-125 -328h-297zM940 553l-207 590h-4l-207 -590h418z" />
    <glyph glyph-name="Adieresis" unicode="&#xc4;" horiz-adv-x="1478" 
d="M647 1571h-237v237h237v-237zM831 1808h238v-237h-238v237zM18 0l557 1430h324l561 -1430h-317l-123 328h-580l-125 -328h-297zM940 553l-207 590h-4l-207 -590h418z" />
    <glyph glyph-name="Aring" unicode="&#xc5;" horiz-adv-x="1478" 
d="M633 1696q0 -45 32 -76q33 -31 77 -31t75 31t31 76t-31 77q-31 31 -76 31t-77 -32t-31 -76zM522 1696q0 90 65 154t155 65q90 0 152 -65q64 -64 64 -154t-63 -154t-153 -63q-90 -1 -156 63q-64 64 -64 154zM18 0l557 1430h324l561 -1430h-317l-123 328h-580l-125 -328
h-297zM940 553l-207 590h-4l-207 -590h418z" />
    <glyph glyph-name="AE" unicode="&#xc6;" horiz-adv-x="1933" 
d="M1823 1430v-226h-555l28 -352h482v-225h-457l33 -402h477v-225h-756l-24 328h-549l-176 -328h-308l783 1430h1022zM1030 553l-47 664h-4l-354 -664h405z" />
    <glyph glyph-name="Ccedilla" unicode="&#xc7;" horiz-adv-x="1251" 
d="M881 -25q-20 0 -29 2l-74 -86l4 -4q74 12 84 13q66 0 115 -37t49 -105q0 -108 -76 -160t-200 -52t-217 42l41 111q98 -31 143 -31q109 0 108 72q0 74 -90 74q-35 0 -86 -19l-30 53l110 140q-297 31 -467 210t-170 492q0 364 209 564t576 200q172 0 323 -59l-20 -242
q-133 76 -310 76q-217 -1 -348 -147t-131 -370t131 -368t342 -143q211 0 326 59l12 -240q-190 -45 -325 -45z" />
    <glyph glyph-name="Egrave" unicode="&#xc8;" 
d="M567 1821l170 -299h-170l-280 299h280zM166 0v1430h844v-226h-557v-352h510v-225h-510v-402h561v-225h-848z" />
    <glyph glyph-name="Eacute" unicode="&#xc9;" 
d="M401 1522l170 299h281l-281 -299h-170zM166 0v1430h844v-226h-557v-352h510v-225h-510v-402h561v-225h-848z" />
    <glyph glyph-name="Ecircumflex" unicode="&#xca;" 
d="M471 1821h207l215 -299h-182l-140 176l-143 -176h-182zM166 0v1430h844v-226h-557v-352h510v-225h-510v-402h561v-225h-848z" />
    <glyph glyph-name="Edieresis" unicode="&#xcb;" 
d="M477 1571h-237v237h237v-237zM662 1808h237v-237h-237v237zM166 0v1430h844v-226h-557v-352h510v-225h-510v-402h561v-225h-848z" />
    <glyph glyph-name="Igrave" unicode="&#xcc;" horiz-adv-x="569" 
d="M283 1821l170 -299h-170l-281 299h281zM141 0v1430h287v-1430h-287z" />
    <glyph glyph-name="Iacute" unicode="&#xcd;" horiz-adv-x="569" 
d="M117 1522l170 299h280l-280 -299h-170zM141 0v1430h287v-1430h-287z" />
    <glyph glyph-name="Icircumflex" unicode="&#xce;" horiz-adv-x="569" 
d="M186 1821h207l215 -299h-182l-139 176l-144 -176h-182zM141 0v1430h287v-1430h-287z" />
    <glyph glyph-name="Idieresis" unicode="&#xcf;" horiz-adv-x="569" 
d="M193 1571h-238v237h238v-237zM377 1808h237v-237h-237v237zM141 0v1430h287v-1430h-287z" />
    <glyph glyph-name="Eth" unicode="&#xd0;" horiz-adv-x="1478" 
d="M453 688v-463h159q190 0 331 133q140 132 140 356t-140 357t-331 133h-159v-340h299v-176h-299zM166 0v688h-131v176h131v566h391q825 0 825 -715t-825 -715h-391z" />
    <glyph glyph-name="Ntilde" unicode="&#xd1;" horiz-adv-x="1478" 
d="M487 1559h-110q0 96 60 172q60 75 144 75t180 -43q95 -43 140 -43t68 29t22 72h111q0 -106 -53 -177t-139 -71t-183 38q-96 38 -142 38q-46 1 -72 -27t-26 -63zM152 0v1430h352l545 -1070h4v1070h274v-1430h-350l-547 1069h-4v-1069h-274z" />
    <glyph glyph-name="Ograve" unicode="&#xd2;" horiz-adv-x="1593" 
d="M795 1821l170 -299h-170l-281 299h281zM395 719q0 -300 169 -440q92 -78 232 -78t233 78q169 142 169 440q0 211 -101 361t-300 149q-199 1 -301 -149t-101 -361zM795 -25q-335 0 -517 203t-182 540q0 336 184 536t515 200q332 0 517 -202t185 -534t-184 -538
q-184 -205 -518 -205z" />
    <glyph glyph-name="Oacute" unicode="&#xd3;" horiz-adv-x="1593" 
d="M629 1522l170 299h280l-280 -299h-170zM395 719q0 -300 169 -440q92 -78 232 -78t233 78q169 142 169 440q0 211 -101 361t-300 149q-199 1 -301 -149t-101 -361zM795 -25q-335 0 -517 203t-182 540q0 336 184 536t515 200q332 0 517 -202t185 -534t-184 -538
q-184 -205 -518 -205z" />
    <glyph glyph-name="Ocircumflex" unicode="&#xd4;" horiz-adv-x="1593" 
d="M698 1821h207l215 -299h-182l-139 176l-144 -176h-182zM395 719q0 -300 169 -440q92 -78 232 -78t233 78q169 142 169 440q0 211 -101 361t-300 149q-199 1 -301 -149t-101 -361zM795 -25q-335 0 -517 203t-182 540q0 336 184 536t515 200q332 0 517 -202t185 -534
t-184 -538q-184 -205 -518 -205z" />
    <glyph glyph-name="Otilde" unicode="&#xd5;" horiz-adv-x="1593" 
d="M545 1559h-111q0 96 60 172q60 75 143 75q82 0 179 -43q98 -43 143 -43q44 0 67 29t23 72h110q0 -106 -53 -177t-139 -71q-87 0 -183 38t-142 38q-46 1 -72 -27t-25 -63zM395 719q0 -300 169 -440q92 -78 232 -78t233 78q169 142 169 440q0 211 -101 361t-300 149
q-199 1 -301 -149t-101 -361zM795 -25q-335 0 -517 203t-182 540q0 336 184 536t515 200q332 0 517 -202t185 -534t-184 -538q-184 -205 -518 -205z" />
    <glyph glyph-name="Odieresis" unicode="&#xd6;" horiz-adv-x="1593" 
d="M705 1571h-238v237h238v-237zM889 1808h237v-237h-237v237zM395 719q0 -300 169 -440q92 -78 232 -78t233 78q169 142 169 440q0 211 -101 361t-300 149q-199 1 -301 -149t-101 -361zM795 -25q-335 0 -517 203t-182 540q0 336 184 536t515 200q332 0 517 -202t185 -534
t-184 -538q-184 -205 -518 -205z" />
    <glyph glyph-name="multiply" unicode="&#xd7;" horiz-adv-x="1228" 
d="M467 518l-332 332l148 147l331 -331l332 331l148 -147l-334 -332l334 -332l-148 -147l-332 334l-331 -334l-148 147z" />
    <glyph glyph-name="Oslash" unicode="&#xd8;" horiz-adv-x="1593" 
d="M1497 728q0 -343 -184 -548t-516 -205q-250 0 -418 117l-117 -151l-92 73l121 156q-195 190 -195 538t184 546q184 200 517 200q236 0 405 -108l111 143l92 -76l-111 -143q203 -199 203 -542zM788 201q148 0 241 78q169 142 169 440q0 192 -80 323l-577 -743
q99 -98 247 -98zM797 1229q-199 0 -300 -150q-101 -151 -101 -351t71 -331l575 742q-100 90 -245 90z" />
    <glyph glyph-name="Ugrave" unicode="&#xd9;" horiz-adv-x="1478" 
d="M737 1821l170 -299h-170l-280 299h280zM156 516v914h286v-826q0 -403 297 -403t297 403v826h287v-914q1 -541 -583 -541t-584 541z" />
    <glyph glyph-name="Uacute" unicode="&#xda;" horiz-adv-x="1478" 
d="M571 1522l170 299h281l-281 -299h-170zM156 516v914h286v-826q0 -403 297 -403t297 403v826h287v-914q1 -541 -583 -541t-584 541z" />
    <glyph glyph-name="Ucircumflex" unicode="&#xdb;" horiz-adv-x="1478" 
d="M641 1821h207l215 -299h-182l-140 176l-143 -176h-182zM156 516v914h286v-826q0 -403 297 -403t297 403v826h287v-914q1 -541 -583 -541t-584 541z" />
    <glyph glyph-name="Udieresis" unicode="&#xdc;" horiz-adv-x="1478" 
d="M647 1571h-237v237h237v-237zM831 1808h238v-237h-238v237zM156 516v914h286v-826q0 -403 297 -403t297 403v826h287v-914q1 -541 -583 -541t-584 541z" />
    <glyph glyph-name="Yacute" unicode="&#xdd;" horiz-adv-x="1366" 
d="M516 1522l170 299h281l-281 -299h-170zM545 0v565l-522 865h335l338 -601l344 601h303l-512 -865v-565h-286z" />
    <glyph glyph-name="Thorn" unicode="&#xde;" 
d="M428 967v-437h100q272 0 273 213q0 117 -76 170t-197 54h-100zM428 0h-287v1430h287v-238h76q596 0 596 -434q0 -236 -151 -344t-400 -109h-121v-305z" />
    <glyph glyph-name="germandbls" unicode="&#xdf;" horiz-adv-x="1251" 
d="M422 0h-275v1034q0 240 129 383t375 144q185 -1 325 -101t140 -276q0 -139 -69 -234q-70 -94 -203 -129v-4q154 -19 250 -125t96 -252q0 -208 -134 -330t-345 -122q-49 0 -179 22l9 213q164 -60 280 24q84 59 82 222q0 231 -321 231v213q248 0 247 224q0 92 -46 151
q-47 60 -147 60t-157 -87t-57 -204v-1057z" />
    <glyph glyph-name="agrave" unicode="&#xe0;" 
d="M532 1497l170 -299h-170l-280 299h280zM336 305q0 -65 48 -97t126 -32q121 0 185 85t65 226h-119q-305 0 -305 -182zM1010 500q0 -297 16 -500h-242q-4 20 -12 158h-4q-47 -84 -137 -133t-189 -50q-150 0 -260 85t-108 229q0 213 180 301q125 61 354 61h152
q0 125 -56 176t-182 52q-173 0 -325 -115l-9 235q172 80 390 80t324 -105q108 -105 108 -339v-135z" />
    <glyph glyph-name="aacute" unicode="&#xe1;" 
d="M418 1198l170 299h280l-280 -299h-170zM336 305q0 -65 48 -97t126 -32q121 0 185 85t65 226h-119q-305 0 -305 -182zM1010 500q0 -297 16 -500h-242q-4 20 -12 158h-4q-47 -84 -137 -133t-189 -50q-150 0 -260 85t-108 229q0 213 180 301q125 61 354 61h152
q0 125 -56 176t-182 52q-173 0 -325 -115l-9 235q172 80 390 80t324 -105q108 -105 108 -339v-135z" />
    <glyph glyph-name="acircumflex" unicode="&#xe2;" 
d="M471 1497h207l215 -299h-182l-140 176l-143 -176h-182zM336 305q0 -65 48 -97t126 -32q121 0 185 85t65 226h-119q-305 0 -305 -182zM1010 500q0 -297 16 -500h-242q-4 20 -12 158h-4q-47 -84 -137 -133t-189 -50q-150 0 -260 85t-108 229q0 213 180 301q125 61 354 61
h152q0 125 -56 176t-182 52q-173 0 -325 -115l-9 235q172 80 390 80t324 -105q108 -105 108 -339v-135z" />
    <glyph glyph-name="atilde" unicode="&#xe3;" 
d="M317 1235h-110q0 96 60 172t149 76q82 0 174 -43t139 -43q47 1 70 29t22 71h111q0 -106 -53 -177t-139 -71t-184 38q-97 38 -142 38q-45 1 -71 -27t-26 -63zM336 305q0 -65 48 -97t126 -32q121 0 185 85t65 226h-119q-305 0 -305 -182zM1010 500q0 -297 16 -500h-242
q-4 20 -12 158h-4q-47 -84 -137 -133t-189 -50q-150 0 -260 85t-108 229q0 213 180 301q125 61 354 61h152q0 125 -56 176t-182 52q-173 0 -325 -115l-9 235q172 80 390 80t324 -105q108 -105 108 -339v-135z" />
    <glyph glyph-name="adieresis" unicode="&#xe4;" 
d="M477 1247h-237v238h237v-238zM662 1485h237v-238h-237v238zM336 305q0 -65 48 -97t126 -32q121 0 185 85t65 226h-119q-305 0 -305 -182zM1010 500q0 -297 16 -500h-242q-4 20 -12 158h-4q-47 -84 -137 -133t-189 -50q-150 0 -260 85t-108 229q0 213 180 301
q125 61 354 61h152q0 125 -56 176t-182 52q-173 0 -325 -115l-9 235q172 80 390 80t324 -105q108 -105 108 -339v-135z" />
    <glyph glyph-name="aring" unicode="&#xe5;" 
d="M463 1404q0 -46 32 -77q33 -31 77 -31t75 31t31 76t-31 77t-77 32t-76 -32q-30 -30 -31 -76zM788 1403q0 -89 -63 -153t-153 -64t-156 64q-64 64 -64 152t66 154t154 66t153 -64q63 -65 63 -155zM336 305q0 -65 48 -97t126 -32q121 0 185 85t65 226h-119
q-305 0 -305 -182zM1010 500q0 -297 16 -500h-242q-4 20 -12 158h-4q-47 -84 -137 -133t-189 -50q-150 0 -260 85t-108 229q0 213 180 301q125 61 354 61h152q0 125 -56 176t-182 52q-173 0 -325 -115l-9 235q172 80 390 80t324 -105q108 -105 108 -339v-135z" />
    <glyph glyph-name="ae" unicode="&#xe6;" horiz-adv-x="1820" 
d="M641 487q-211 -1 -277 -99q-28 -42 -28 -94t42 -85t114 -33q143 0 205 76t63 235h-119zM1313 -25q-309 0 -443 191q-58 -94 -166 -144t-227 -47q-170 0 -287 77t-116 237q0 104 47 179t128 113q149 70 353 70h158q0 117 -55 173t-208 56t-307 -116l-8 235q174 80 375 80
q125 -1 205 -27t153 -106q127 133 361 133q471 0 471 -637h-725q0 -126 86 -196t232 -70t335 107v-224q-152 -84 -362 -84zM1022 631h463q0 106 -54 177t-166 71q-111 0 -177 -71t-66 -177z" />
    <glyph glyph-name="ccedilla" unicode="&#xe7;" horiz-adv-x="909" 
d="M626 866q-114 0 -190 -92t-76 -244t73 -246t212 -96q98 0 211 50l12 -228q-98 -31 -227 -33l-76 -86l4 -4q74 12 84 13q66 0 115 -37t49 -105q0 -108 -76 -160q-75 -52 -199 -52t-218 42l41 111q98 -31 143 -31q109 0 108 72q0 74 -90 74q-35 0 -86 -19l-30 53l106 134
q-215 22 -329 172q-113 150 -113 383t135 388t375 154q149 0 266 -35l-25 -217q-85 39 -199 39z" />
    <glyph glyph-name="egrave" unicode="&#xe8;" 
d="M532 1497l170 -299h-170l-280 299h280zM625 -25q-263 -1 -407 143t-144 395t127 409t362 157q284 0 393 -175t109 -462h-729q8 -126 90 -196t226 -70t335 107v-224q-152 -84 -362 -84zM578 879q-110 1 -170 -67q-62 -68 -72 -181h467q-7 111 -61 179t-164 69z" />
    <glyph glyph-name="eacute" unicode="&#xe9;" 
d="M418 1198l170 299h280l-280 -299h-170zM625 -25q-263 -1 -407 143t-144 395t127 409t362 157q284 0 393 -175t109 -462h-729q8 -126 90 -196t226 -70t335 107v-224q-152 -84 -362 -84zM578 879q-110 1 -170 -67q-62 -68 -72 -181h467q-7 111 -61 179t-164 69z" />
    <glyph glyph-name="ecircumflex" unicode="&#xea;" 
d="M471 1497h207l215 -299h-182l-140 176l-143 -176h-182zM625 -25q-263 -1 -407 143t-144 395t127 409t362 157q284 0 393 -175t109 -462h-729q8 -126 90 -196t226 -70t335 107v-224q-152 -84 -362 -84zM578 879q-110 1 -170 -67q-62 -68 -72 -181h467q-7 111 -61 179
t-164 69z" />
    <glyph glyph-name="edieresis" unicode="&#xeb;" 
d="M477 1247h-237v238h237v-238zM662 1485h237v-238h-237v238zM625 -25q-263 -1 -407 143t-144 395t127 409t362 157q284 0 393 -175t109 -462h-729q8 -126 90 -196t226 -70t335 107v-224q-152 -84 -362 -84zM578 879q-110 1 -170 -67q-62 -68 -72 -181h467q-7 111 -61 179
t-164 69z" />
    <glyph glyph-name="igrave" unicode="&#xec;" horiz-adv-x="569" 
d="M248 1497l170 -299h-170l-281 299h281zM422 0h-275v1055h275v-1055z" />
    <glyph glyph-name="iacute" unicode="&#xed;" horiz-adv-x="569" 
d="M133 1198l170 299h281l-281 -299h-170zM422 0h-275v1055h275v-1055z" />
    <glyph glyph-name="icircumflex" unicode="&#xee;" horiz-adv-x="569" 
d="M186 1497h207l215 -299h-182l-139 176l-144 -176h-182zM422 0h-275v1055h275v-1055z" />
    <glyph glyph-name="idieresis" unicode="&#xef;" horiz-adv-x="569" 
d="M193 1247h-238v238h238v-238zM377 1485h237v-238h-237v238zM422 0h-275v1055h275v-1055z" />
    <glyph glyph-name="eth" unicode="&#xf0;" horiz-adv-x="1251" 
d="M1171 578q0 -291 -142 -447t-400 -156t-407 155q-148 155 -150 383t129 385t350 157q150 0 252 -66h4q-66 139 -217 254l-189 -123l-104 97l170 110q-100 63 -203 98l125 140q135 -49 260 -121l189 121l104 -97l-170 -108q399 -307 399 -782zM628 842q-126 0 -197 -100
t-71 -230q0 -129 66 -226q66 -98 199 -98t196 94t63 226q0 130 -64 232q-66 102 -192 102z" />
    <glyph glyph-name="ntilde" unicode="&#xf1;" horiz-adv-x="1251" 
d="M375 1235h-111q0 96 60 172t147 76q86 0 205 -57q66 -29 111 -29q46 0 69 28q23 29 23 72h110q0 -106 -53 -177t-139 -71q-85 0 -183 38t-143 38q-45 1 -71 -27t-25 -63zM141 0v1055h260v-144h5q119 168 346 168q180 -1 269 -113t89 -300v-666h-274v563q0 172 -41 238
q-41 65 -125 65q-153 0 -209 -126q-45 -101 -45 -224v-516h-275z" />
    <glyph glyph-name="ograve" unicode="&#xf2;" horiz-adv-x="1251" 
d="M590 1497l170 -299h-170l-281 299h281zM360 540q0 -142 60 -246q60 -106 208 -106q147 0 210 118q53 99 53 238q0 140 -70 231q-71 91 -197 91t-195 -92t-69 -234zM1178 530q0 -246 -148 -400t-404 -155q-256 1 -404 155t-148 400t155 398q156 152 396 152
q241 0 397 -152t156 -398z" />
    <glyph glyph-name="oacute" unicode="&#xf3;" horiz-adv-x="1251" 
d="M475 1198l170 299h281l-281 -299h-170zM360 540q0 -142 60 -246q60 -106 208 -106q147 0 210 118q53 99 53 238q0 140 -70 231q-71 91 -197 91t-195 -92t-69 -234zM1178 530q0 -246 -148 -400t-404 -155q-256 1 -404 155t-148 400t155 398q156 152 396 152
q241 0 397 -152t156 -398z" />
    <glyph glyph-name="ocircumflex" unicode="&#xf4;" horiz-adv-x="1251" 
d="M528 1497h207l215 -299h-182l-139 176l-144 -176h-182zM360 540q0 -142 60 -246q60 -106 208 -106q147 0 210 118q53 99 53 238q0 140 -70 231q-71 91 -197 91t-195 -92t-69 -234zM1178 530q0 -246 -148 -400t-404 -155q-256 1 -404 155t-148 400t155 398
q156 152 396 152q241 0 397 -152t156 -398z" />
    <glyph glyph-name="otilde" unicode="&#xf5;" horiz-adv-x="1251" 
d="M375 1235h-111q0 96 60 172t147 76q86 0 205 -57q66 -29 111 -29q46 0 69 28q23 29 23 72h110q0 -106 -53 -177t-139 -71q-85 0 -183 38t-143 38q-45 1 -71 -27t-25 -63zM360 540q0 -142 60 -246q60 -106 208 -106q147 0 210 118q53 99 53 238q0 140 -70 231
q-71 91 -197 91t-195 -92t-69 -234zM1178 530q0 -246 -148 -400t-404 -155q-256 1 -404 155t-148 400t155 398q156 152 396 152q241 0 397 -152t156 -398z" />
    <glyph glyph-name="odieresis" unicode="&#xf6;" horiz-adv-x="1251" 
d="M535 1247h-238v238h238v-238zM719 1485h237v-238h-237v238zM360 540q0 -142 60 -246q60 -106 208 -106q147 0 210 118q53 99 53 238q0 140 -70 231q-71 91 -197 91t-195 -92t-69 -234zM1178 530q0 -246 -148 -400t-404 -155q-256 1 -404 155t-148 400t155 398
q156 152 396 152q241 0 397 -152t156 -398z" />
    <glyph glyph-name="divide" unicode="&#xf7;" horiz-adv-x="1228" 
d="M614 -47q-70 0 -114 44t-43 114q0 69 44 113q43 44 113 44t114 -44t44 -114t-44 -113q-44 -44 -114 -44zM614 1083q70 0 114 -44q44 -43 44 -113t-44 -114t-114 -44t-114 44t-43 114q-1 70 43 114t114 43zM1135 412h-1041v213h1041v-213z" />
    <glyph glyph-name="oslash" unicode="&#xf8;" horiz-adv-x="1251" 
d="M1178 529q0 -245 -148 -399t-405 -155q-182 0 -322 88l-113 -135l-84 68l115 137q-147 147 -147 395t155 400q156 152 396 151q178 0 315 -86l111 133l82 -67l-111 -133q156 -152 156 -397zM891 564q0 83 -37 161l-395 -475q66 -62 154 -62t142 32t83 86t41 114t12 144z
M625 866q-127 0 -196 -92t-69 -218t37 -212l389 467q-66 55 -161 55z" />
    <glyph glyph-name="ugrave" unicode="&#xf9;" horiz-adv-x="1251" 
d="M590 1497l170 -299h-170l-281 299h281zM1110 1055v-1055h-260v143h-4q-138 -168 -332 -168t-284 113q-89 113 -89 301v666h275v-563q0 -176 41 -239t124 -64q206 -2 244 237q10 55 11 113v516h274z" />
    <glyph glyph-name="uacute" unicode="&#xfa;" horiz-adv-x="1251" 
d="M475 1198l170 299h281l-281 -299h-170zM1110 1055v-1055h-260v143h-4q-138 -168 -332 -168t-284 113q-89 113 -89 301v666h275v-563q0 -176 41 -239t124 -64q206 -2 244 237q10 55 11 113v516h274z" />
    <glyph glyph-name="ucircumflex" unicode="&#xfb;" horiz-adv-x="1251" 
d="M528 1497h207l215 -299h-182l-139 176l-144 -176h-182zM1110 1055v-1055h-260v143h-4q-138 -168 -332 -168t-284 113q-89 113 -89 301v666h275v-563q0 -176 41 -239t124 -64q206 -2 244 237q10 55 11 113v516h274z" />
    <glyph glyph-name="udieresis" unicode="&#xfc;" horiz-adv-x="1251" 
d="M535 1247h-238v238h238v-238zM719 1485h237v-238h-237v238zM1110 1055v-1055h-260v143h-4q-138 -168 -332 -168t-284 113q-89 113 -89 301v666h275v-563q0 -176 41 -239t124 -64q206 -2 244 237q10 55 11 113v516h274z" />
    <glyph glyph-name="yacute" unicode="&#xfd;" 
d="M418 1198l170 299h280l-280 -299h-170zM326 1055l254 -770h4l254 770h278l-395 -1047q-6 -16 -26 -68t-50 -133q-30 -80 -71 -124q-40 -45 -80 -77q-74 -59 -191 -60q-116 -1 -215 28l18 203q52 -19 138 -19t134 52t48 137l-403 1108h303z" />
    <glyph glyph-name="thorn" unicode="&#xfe;" horiz-adv-x="1251" 
d="M664 866q-122 0 -184 -103t-62 -235t58 -235q58 -104 183 -105q83 0 139 58t74 130q39 159 0 305q-18 71 -71 128t-137 57zM141 -430v1966h275v-618h4q96 162 319 162t331 -156q108 -154 108 -394q0 -154 -41 -274t-145 -200q-104 -81 -257 -81q-203 0 -315 144h-4v-549
h-275z" />
    <glyph glyph-name="ydieresis" unicode="&#xff;" 
d="M477 1247h-237v238h237v-238zM662 1485h237v-238h-237v238zM326 1055l254 -770h4l254 770h278l-395 -1047q-6 -16 -26 -68t-50 -133q-30 -80 -71 -124q-40 -45 -80 -77q-74 -59 -191 -60q-116 -1 -215 28l18 203q52 -19 138 -19t134 52t48 137l-403 1108h303z" />
    <glyph glyph-name="dotlessi" unicode="&#x131;" horiz-adv-x="569" 
d="M422 0h-275v1055h275v-1055z" />
    <glyph glyph-name="Lslash" unicode="&#x141;" horiz-adv-x="1024" 
d="M166 0v498l-150 -90v188l150 90v744h287v-574l344 205v-189l-344 -204v-443h555v-225h-842z" />
    <glyph glyph-name="lslash" unicode="&#x142;" horiz-adv-x="569" 
d="M147 0v600l-147 -88v188l147 88v748h275v-584l147 88v-188l-147 -88v-764h-275z" />
    <glyph glyph-name="OE" unicode="&#x152;" horiz-adv-x="1933" 
d="M1823 1430v-226h-533v-352h488v-225h-488v-402h541v-225h-543l-459 -12q-733 0 -733 719q0 360 206 547t564 188l422 -12h535zM395 714q0 -226 122 -362t343 -139q62 0 144 12v979q-86 12 -152 13q-215 -1 -336 -139t-121 -364z" />
    <glyph glyph-name="oe" unicode="&#x153;" horiz-adv-x="1933" 
d="M1171 631h426q-4 109 -54 179t-152 69q-102 0 -161 -74t-59 -174zM1860 442h-689q2 -130 83 -198t210 -68q170 0 314 105l8 -224q-139 -82 -330 -82q-315 0 -428 175q-125 -174 -391 -174t-415 154q-148 154 -148 400t155 398q156 152 407 152t382 -181q60 88 158 134
t210 46q474 0 474 -637zM360 548q0 -114 23 -189t85 -129t157 -54q141 0 207 99t65 248q0 149 -66 252q-67 103 -201 103t-202 -107q-68 -109 -68 -223z" />
    <glyph glyph-name="Scaron" unicode="&#x160;" 
d="M678 1522h-207l-225 299h182l143 -176l140 176h182zM492 201q94 0 174 48t80 129t-65 130t-157 83t-184 77t-157 131t-64 219q0 224 144 330t344 106t354 -51l-27 -236q-141 61 -291 62q-90 0 -158 -46t-67 -153q0 -68 64 -112t157 -78q92 -33 184 -76t157 -133t64 -223
q0 -221 -150 -327q-151 -105 -386 -106q-134 -1 -201 15q-66 16 -166 41l27 258q162 -88 324 -88z" />
    <glyph glyph-name="scaron" unicode="&#x161;" horiz-adv-x="909" 
d="M563 1198h-207l-225 299h182l144 -176l139 176h182zM546 879q-185 0 -186 -117q0 -45 50 -73t118 -47q70 -19 141 -49q71 -31 119 -99t50 -175q0 -172 -128 -258t-292 -86t-334 45l16 226q139 -70 271 -70q68 0 124 30t56 88q0 102 -121 132t-232 86q-52 27 -88 88
t-36 152q0 162 120 244t293 83q117 0 299 -39l-18 -206q-132 45 -222 45z" />
    <glyph glyph-name="Ydieresis" unicode="&#x178;" horiz-adv-x="1366" 
d="M592 1571h-238v237h238v-237zM776 1808h238v-237h-238v237zM545 0v565l-522 865h335l338 -601l344 601h303l-512 -865v-565h-286z" />
    <glyph glyph-name="Zcaron" unicode="&#x17d;" 
d="M678 1522h-207l-225 299h182l143 -176l140 176h182zM74 0v233l671 971h-645v226h951v-234l-678 -971h692v-225h-991z" />
    <glyph glyph-name="zcaron" unicode="&#x17e;" horiz-adv-x="1024" 
d="M621 1198h-207l-226 299h183l143 -176l139 176h183zM96 842v213h836v-226l-524 -616h542v-213h-876v223l534 619h-512z" />
    <glyph glyph-name="florin" unicode="&#x192;" 
d="M948 1454q88 0 172 -18l-37 -217q-90 23 -118 22q-63 0 -95 -43t-49 -125l-51 -242h248l-27 -163h-254l-125 -674q-38 -227 -126 -333q-96 -116 -286 -116q-116 0 -184 21l41 203q175 -41 222 61q19 44 32 115l144 723h-232l31 163h233l64 287q39 174 129 255t268 81z
" />
    <glyph glyph-name="circumflex" unicode="&#x2c6;" horiz-adv-x="569" 
d="M186 1497h207l215 -299h-182l-139 176l-144 -176h-182z" />
    <glyph glyph-name="caron" unicode="&#x2c7;" horiz-adv-x="569" 
d="M393 1198h-207l-225 299h182l144 -176l139 176h182z" />
    <glyph glyph-name="uni02C9" unicode="&#x2c9;" horiz-adv-x="569" 
d="M580 1266h-590v164h590v-164z" />
    <glyph glyph-name="breve" unicode="&#x2d8;" horiz-adv-x="569" 
d="M283 1331q170 0 209 164h126q-8 -137 -102 -224t-232 -87t-233 87q-94 87 -100 224h127q16 -78 69 -121t136 -43z" />
    <glyph glyph-name="dotaccent" unicode="&#x2d9;" horiz-adv-x="569" 
d="M403 1247h-237v238h237v-238z" />
    <glyph glyph-name="ring" unicode="&#x2da;" horiz-adv-x="569" 
d="M178 1404q0 -46 32 -77t77 -31t75 31t31 76q0 45 -31 77q-32 32 -76 32t-76 -32q-32 -30 -32 -76zM68 1402q0 88 64 154t155 66q90 0 153 -64q64 -64 64 -155q0 -89 -64 -153t-153 -64q-90 0 -155 63q-64 64 -64 153z" />
    <glyph glyph-name="ogonek" unicode="&#x2db;" horiz-adv-x="569" 
d="M301 -252q0 -92 84 -92q63 0 115 68l82 -17q-40 -84 -98 -123t-154 -39t-151 47q-54 47 -54 123t45 132t89 86t112 67h100q-170 -131 -170 -252z" />
    <glyph glyph-name="tilde" unicode="&#x2dc;" horiz-adv-x="569" 
d="M33 1235h-111q0 96 60 172t147 76q86 0 205 -57q66 -29 111 -29q46 1 69 29t23 71h110q0 -106 -53 -177t-139 -71q-87 0 -183 38t-142 38q-46 1 -72 -27t-25 -63z" />
    <glyph glyph-name="hungarumlaut" unicode="&#x2dd;" horiz-adv-x="569" 
d="M260 1198l170 299h281l-281 -299h-170zM-143 1196l170 299h280l-280 -299h-170z" />
    <glyph glyph-name="uni03A9" unicode="&#x3a9;" horiz-adv-x="1447" 
d="M360 199v6q-109 98 -180 248q-72 150 -71 333q0 279 174 470t446 192q141 0 259 -57q218 -105 306 -359q41 -115 41 -233q-1 -186 -75 -342t-183 -252v-6h285v-199h-531v145q111 72 184 224t73 367t-97 361q-96 146 -263 146t-269 -142q-103 -143 -103 -359t74 -374
t182 -223v-145h-532v199h280z" />
    <glyph glyph-name="uni03BC" unicode="&#x3bc;" horiz-adv-x="1251" 
d="M141 -430v1485h275v-563q0 -176 41 -239t124 -64q206 -2 244 237q10 55 11 113v516h274v-1055h-260v143h-4q-27 -63 -90 -115t-138 -53q-135 0 -198 70h-4v-475h-275z" />
    <glyph glyph-name="pi" unicode="&#x3c0;" horiz-adv-x="1218" 
d="M1022 862v-559q0 -188 27 -303h-236q-35 57 -35 291v571h-295q-8 -196 -46 -456t-87 -406h-237q51 172 89 427t42 435q-137 0 -205 -22l-29 164q90 66 328 65h850l-19 -207h-147z" />
    <glyph glyph-name="endash" unicode="&#x2013;" horiz-adv-x="1024" 
d="M0 457v188h1024v-188h-1024z" />
    <glyph glyph-name="emdash" unicode="&#x2014;" horiz-adv-x="2048" 
d="M0 457v188h2048v-188h-2048z" />
    <glyph glyph-name="quoteleft" unicode="&#x2018;" horiz-adv-x="569" 
d="M70 918l186 512h244l-129 -512h-301z" />
    <glyph glyph-name="quoteright" unicode="&#x2019;" horiz-adv-x="569" 
d="M70 918l131 512h299l-189 -512h-241z" />
    <glyph glyph-name="quotesinglbase" unicode="&#x201a;" horiz-adv-x="569" 
d="M70 -225l131 512h299l-189 -512h-241z" />
    <glyph glyph-name="quotedblleft" unicode="&#x201c;" horiz-adv-x="985" 
d="M485 918l187 512h243l-129 -512h-301zM70 918l186 512h244l-129 -512h-301z" />
    <glyph glyph-name="quotedblright" unicode="&#x201d;" horiz-adv-x="985" 
d="M485 918l131 512h299l-188 -512h-242zM70 918l131 512h299l-189 -512h-241z" />
    <glyph glyph-name="quotedblbase" unicode="&#x201e;" horiz-adv-x="985" 
d="M70 -225l131 512h299l-189 -512h-241zM485 -225l131 512h299l-188 -512h-242z" />
    <glyph glyph-name="dagger" unicode="&#x2020;" 
d="M121 891v213h317v326h262v-326h318v-213h-318v-891h-262v891h-317z" />
    <glyph glyph-name="daggerdbl" unicode="&#x2021;" 
d="M121 936v201h317v293h262v-293h318v-201h-318v-434h318v-201h-318v-301h-262v301h-317v201h317v434h-317z" />
    <glyph glyph-name="bullet" unicode="&#x2022;" horiz-adv-x="1024" 
d="M156 715q0 147 104 251t252 105q148 0 252 -104q106 -103 106 -251t-105 -254t-253 -106t-252 106t-104 253z" />
    <glyph glyph-name="ellipsis" unicode="&#x2026;" horiz-adv-x="2048" 
d="M1849 0h-286v287h286v-287zM1167 0h-286v287h286v-287zM485 0h-286v287h286v-287z" />
    <glyph glyph-name="perthousand" unicode="&#x2030;" horiz-adv-x="2048" 
d="M150 -45l878 1520h168l-879 -1520h-167zM1642 382q-2 -17 -2 -72q0 -110 24 -148q24 -39 79 -39t77 39q23 39 23 147t-10 153q-17 74 -78 74q-62 1 -79 -23q-17 -25 -23 -41t-8 -44q-1 -29 -3 -46zM1742 -25q-290 1 -290 355t290 354t290 -354t-290 -355zM1054 -25
q-290 1 -290 355t290 354t290 -354t-290 -355zM988 513q-27 -40 -32 -88q-4 -48 -4 -138t24 -127t79 -37t77 39q23 39 23 147t-10 153q-17 74 -78 74q-62 2 -79 -23zM308 745q-290 1 -290 355t290 354t290 -354t-290 -355zM367 1291q-23 15 -53 15t-48 -6q-49 -21 -54 -91
q-5 -69 -5 -154t16 -111q32 -51 86 -51q55 0 74 32q27 47 27 192t-43 174z" />
    <glyph glyph-name="guilsinglleft" unicode="&#x2039;" horiz-adv-x="681" 
d="M100 551l242 420h258l-225 -420l225 -420h-258z" />
    <glyph glyph-name="guilsinglright" unicode="&#x203a;" horiz-adv-x="681" 
d="M582 551l-242 -420h-258l225 420l-225 420h258z" />
    <glyph glyph-name="fraction" unicode="&#x2044;" horiz-adv-x="342" 
d="M-340 -45l854 1520h168l-854 -1520h-168z" />
    <glyph glyph-name="Euro" unicode="&#x20ac;" 
d="M922 1235q-148 0 -258 -85t-156 -230h600l-31 -125h-602q-8 -80 0 -160h565l-28 -125h-504q47 -143 156 -226t255 -83t248 45l13 -230q-117 -41 -295 -41q-263 1 -449 141t-241 394h-203l31 125h153q-6 80 0 160h-184l31 125h174q57 246 244 390t440 144q188 0 340 -55
l-54 -213q-97 49 -245 49z" />
    <glyph glyph-name="afii61289" unicode="&#x2113;" horiz-adv-x="1038" 
d="M451 1059v-336q250 281 249 496q0 176 -116 176q-55 0 -94 -79t-39 -257zM215 1055q0 258 101 386q100 128 248 128q148 -1 219 -101t71 -258q0 -324 -403 -712v-84q2 -115 55 -175t133 -61q145 1 260 187l102 -101q-143 -281 -417 -280q-172 0 -261 95t-104 245v22
q-6 -4 -108 -84l-62 131q144 120 166 142v520z" />
    <glyph glyph-name="trademark" unicode="&#x2122;" horiz-adv-x="2048" 
d="M338 578v688h-240v164h693v-164h-240v-688h-213zM952 578v852h297l203 -533l201 533h297v-852h-201v602h-4l-217 -602h-154l-217 602h-4v-602h-201z" />
    <glyph glyph-name="Omega" unicode="&#x2126;" horiz-adv-x="1447" 
d="M360 199v6q-109 98 -180 248q-72 150 -71 333q0 279 174 470t446 192q141 0 259 -57q218 -105 306 -359q41 -115 41 -233q-1 -186 -75 -342t-183 -252v-6h285v-199h-531v145q111 72 184 224t73 367t-97 361q-96 146 -263 146t-269 -142q-103 -143 -103 -359t74 -374
t182 -223v-145h-532v199h280z" />
    <glyph glyph-name="estimated" unicode="&#x212e;" horiz-adv-x="1781" 
d="M1409 748v403q0 29 -18 49q-213 209 -500 209t-500 -217q-20 -18 -20 -49v-395q0 -14 10 -15h1020q8 1 8 15zM1712 694h-1331q-10 0 -10 -8v-403q0 -27 18 -45q213 -219 502 -220q156 0 293 66t237 178h117q-111 -131 -283 -208t-366 -77q-340 1 -580 217t-239 521
q0 305 239 522q240 217 580 217q339 0 581 -217t242 -522v-21z" />
    <glyph glyph-name="partialdiff" unicode="&#x2202;" horiz-adv-x="1163" 
d="M520 186h2q113 0 188 133t93 306q-20 63 -85 120t-161 57t-167 -102t-71 -230q-1 -128 55 -206t146 -78zM518 1608q226 0 386 -204t161 -581q0 -377 -151 -608t-416 -231q-199 0 -310 148t-110 335q0 238 127 385t313 147q113 0 193 -55t112 -113h2q2 16 2 70
q0 209 -98 357q-97 148 -249 148t-269 -97l-72 182q153 117 379 117z" />
    <glyph glyph-name="Delta" unicode="&#x2206;" horiz-adv-x="1337" 
d="M305 197h713l-234 624q-14 53 -59 189t-57 180h-9q-8 -37 -50 -160t-56 -176zM55 0v145l473 1311h291l459 -1309v-147h-1223z" />
    <glyph glyph-name="product" unicode="&#x220f;" horiz-adv-x="1464" 
d="M1411 1204h-209v-1401h-239v1401h-463v-1401h-240v1401h-211v221h1362v-221z" />
    <glyph glyph-name="summation" unicode="&#x2211;" horiz-adv-x="1136" 
d="M1096 -197h-1049v156l500 655l-481 641v170h997v-206h-670v-9l428 -557l-473 -618v-6h748v-226z" />
    <glyph glyph-name="minus" unicode="&#x2212;" horiz-adv-x="1228" 
d="M1135 412h-1041v213h1041v-213z" />
    <glyph glyph-name="uni2215" unicode="&#x2215;" horiz-adv-x="342" 
d="M-340 -45l854 1520h168l-854 -1520h-168z" />
    <glyph glyph-name="uni2219" unicode="&#x2219;" horiz-adv-x="569" 
d="M285 424q-70 0 -114 44t-44 114t44 114t114 43q69 0 113 -44q44 -43 44 -113t-44 -114t-113 -44z" />
    <glyph glyph-name="radical" unicode="&#x221a;" horiz-adv-x="1202" 
d="M1217 1706l-457 -1995h-197l-305 901l-152 -59l-40 137l337 135l218 -665q16 -70 41 -170l2 -2q4 20 14 84t16 98l353 1536h170z" />
    <glyph glyph-name="infinity" unicode="&#x221e;" horiz-adv-x="1585" 
d="M1159 793h-2q-72 0 -133 -51t-112 -108q-36 -42 -42 -48q98 -121 160 -166t139 -45q78 0 128 63q51 64 51 150t-52 146t-137 59zM434 375h2q111 0 220 126q19 22 65 72q-77 100 -122 145q-44 44 -84 59t-89 16q-86 1 -137 -61t-51 -152t56 -147q56 -58 140 -58zM1487 590
v-2q0 -156 -97 -252t-229 -96q-184 0 -366 233q-93 -113 -179 -173t-208 -60t-215 96q-95 96 -95 245t96 245t240 98q188 0 369 -230q3 6 37 46t71 74t110 72t153 38q135 0 224 -92t89 -242z" />
    <glyph glyph-name="integral" unicode="&#x222b;" horiz-adv-x="796" 
d="M638 1585q-54 0 -87 -51q-59 -76 -59 -346q0 -160 15 -482t15 -505q0 -273 -76 -411t-253 -138q-96 0 -154 33l31 172q125 -49 180 20q57 76 57 292t-15 544q-16 329 -16 501t28 278t93 175q84 92 232 92q70 1 123 -24l-27 -168q-33 18 -87 18z" />
    <glyph glyph-name="approxequal" unicode="&#x2248;" horiz-adv-x="1126" 
d="M766 252q-88 0 -214 76t-180 76q-89 -1 -150 -74q-19 -25 -54 -76l-88 82q45 92 124 148q160 114 358 -3q22 -12 31 -16q9 -3 34 -19t62 -34t87 -19q50 0 89 35q40 35 89 111l88 -80q-111 -207 -276 -207zM768 627q-92 0 -219 76q-127 75 -179 75q-88 -1 -149 -75
q-20 -26 -53 -72l-88 80q47 92 125 149q78 58 171 58t172 -53q5 -3 22 -13q18 -10 24 -14t30 -18t32 -18q58 -34 114 -34q55 0 96 36t88 111l88 -79q-111 -209 -274 -209z" />
    <glyph glyph-name="notequal" unicode="&#x2260;" horiz-adv-x="1126" 
d="M1026 860v-141h-338l-123 -281h461v-141h-516l-102 -234l-113 48l84 186h-281v141h336l121 281h-457v141h512l101 230l112 -48l-82 -182h285z" />
    <glyph glyph-name="lessequal" unicode="&#x2264;" horiz-adv-x="1126" 
d="M1028 -20h-928v145h928v-145zM1020 201l-911 456v154l911 455v-166l-768 -363v-4l768 -364v-168z" />
    <glyph glyph-name="greaterequal" unicode="&#x2265;" horiz-adv-x="1126" 
d="M1024 -20h-922v145h922v-145zM113 1266l911 -457v-152l-911 -456v168l768 362v6l-768 363v166z" />
    <glyph glyph-name="lozenge" unicode="&#x25ca;" horiz-adv-x="1202" 
d="M883 707l-240 497q-27 68 -39 121h-6q-12 -53 -39 -121l-242 -487l244 -506q25 -70 35 -115h8q14 63 35 111zM1100 711l-408 -809h-194l-396 809l406 811h194z" />
    </font>
</defs>
</svg>
